<?xml version="1.0" standalone="no"?>
<!DOCTYPE svg PUBLIC "-//W3C//DTD SVG 20010904//EN" "http://www.w3.org/TR/2001/REC-SVG-20010904/DTD/svg10.dtd">
<svg version="1.0" xmlns="http://www.w3.org/2000/svg" width="1280.000000pt" height="640.000000pt"
    viewBox="0 0 1280.000000 640.000000" preserveAspectRatio="xMidYMid meet">
    <metadata>
        Created by potrace 1.15, written by Peter Selinger 2001-2017
    </metadata>
    <g transform="translate(0.000000,640.000000) scale(0.100000,-0.100000)" fill="#FFDEB8" stroke="none">
        <path d="M1050 4357 c-63 -62 -204 -197 -313 -301 -341 -325 -512 -547 -627
-813 -37 -86 -105 -301 -98 -309 2 -2 49 -22 103 -44 96 -40 132 -60 108 -60
-12 0 -3 -52 15 -87 18 -33 61 -55 281 -143 342 -136 654 -269 961 -410 159
-72 223 -91 263 -78 57 21 43 83 -37 156 -41 37 -45 45 -35 63 6 12 7 25 2 29
-4 4 -60 51 -123 105 -63 54 -138 120 -166 147 l-52 50 15 43 c18 53 41 69
135 94 168 46 291 56 678 56 408 0 525 -9 955 -73 138 -20 283 -37 323 -37 68
0 76 2 97 27 13 15 26 44 30 66 8 52 -42 664 -60 729 -17 58 -55 96 -114 114
-37 11 -39 14 -45 63 -3 28 -6 65 -6 82 l0 31 -112 27 c-171 40 -347 72 -534
97 -147 20 -213 23 -504 24 -357 0 -417 -5 -719 -56 -96 -16 -176 -27 -179
-24 -3 3 0 5 7 5 19 0 74 127 79 182 8 87 -47 114 -126 61 -47 -32 -131 -110
-149 -139 -18 -28 25 71 97 220 33 70 59 133 57 140 -3 6 -24 25 -49 43 l-44
31 -114 -111z" />
    </g>
</svg>