<svg width="292" height="216" viewBox="0 0 292 216" fill="none" xmlns="http://www.w3.org/2000/svg">
<path d="M0.788862 214.812L12.9944 207.766L12.9944 193.609L19.3813 189.922C24.794 186.797 28.9437 183.099 31.8305 178.828C34.7172 174.536 36.1606 169.766 36.1606 164.516C36.1606 159.245 34.7082 156.167 31.8034 155.281C28.9166 154.365 24.785 155.458 19.4084 158.562L0.788861 169.312L0.788862 214.812ZM12.9944 184.266L12.9944 171.703L17.8929 168.875C20.2383 167.521 21.8351 167.078 22.6831 167.547C23.5491 167.984 23.9821 169.328 23.9821 171.578C23.9821 173.87 23.5491 175.755 22.6831 177.234C21.8351 178.682 20.2383 180.083 17.8929 181.438L12.9944 184.266ZM39.7059 170.75C39.7059 178.333 41.6093 182.88 45.4162 184.391C49.2412 185.891 54.1847 184.891 60.2469 181.391C66.2911 177.901 71.2527 173.182 75.1317 167.234C79.0288 161.276 80.9774 154.505 80.9774 146.922L80.9774 144.609C80.9774 137.026 79.0288 132.505 75.1317 131.047C71.2527 129.578 66.2911 130.589 60.2469 134.078C54.1847 137.578 49.2412 142.286 45.4162 148.203C41.6093 154.109 39.7059 160.854 39.7059 168.438L39.7059 170.75ZM52.3444 165.203L52.3444 159.422C52.3444 155.214 53.0481 151.901 54.4554 149.484C55.8627 147.047 57.7932 145.12 60.2469 143.703C62.7367 142.266 64.7124 141.938 66.1738 142.719C67.6352 143.479 68.3659 145.964 68.3659 150.172L68.3659 155.953C68.3659 160.141 67.6352 163.469 66.1738 165.938C64.7124 168.406 62.7367 170.359 60.2469 171.797C57.7932 173.214 55.8627 173.516 54.4554 172.703C53.0481 171.891 52.3444 169.391 52.3444 165.203ZM87.0666 165L99.2722 157.953L99.2722 143.797L105.659 140.109C111.072 136.984 115.221 133.286 118.108 129.016C120.995 124.724 122.438 119.953 122.438 114.703C122.438 109.432 120.986 106.354 118.081 105.469C115.194 104.552 111.063 105.646 105.686 108.75L87.0666 119.5L87.0666 165ZM99.2722 134.453L99.2722 121.891L104.171 119.062C106.516 117.708 108.113 117.266 108.961 117.734C109.827 118.172 110.26 119.516 110.26 121.766C110.26 124.057 109.827 125.943 108.961 127.422C108.113 128.87 106.516 130.271 104.171 131.625L99.2722 134.453ZM125.984 120.938C125.984 128.438 127.842 132.99 131.559 134.594C135.293 136.188 140.336 135.151 146.687 131.484C152.497 128.13 157.134 123.943 160.598 118.922C164.062 113.88 165.794 108.818 165.794 103.734L165.794 102.422L153.399 109.578L153.399 110.891C153.417 113.089 152.885 115.135 151.802 117.031C150.738 118.917 149.051 120.526 146.741 121.859C144.017 123.432 141.987 123.781 140.652 122.906C139.335 122 138.676 119.589 138.676 115.672L138.676 109.234C138.676 105.255 139.362 102.068 140.733 99.6719C142.122 97.2448 144.053 95.3177 146.525 93.8906C148.816 92.5677 150.503 92.1667 151.586 92.6875C152.686 93.1771 153.281 94.5938 153.372 96.9375L153.399 98.3594L165.794 91.2031L165.794 90.0156C165.631 84.9219 163.854 81.8438 160.462 80.7812C157.088 79.6875 152.497 80.8177 146.687 84.1719C140.39 87.8073 135.366 92.5521 131.613 98.4062C127.86 104.26 125.984 111 125.984 118.625L125.984 120.938ZM168.744 96.25C168.744 103.833 170.647 108.38 174.454 109.891C178.279 111.391 183.223 110.391 189.285 106.891C195.329 103.401 200.29 98.6823 204.17 92.7344C208.067 86.776 210.015 80.0052 210.015 72.4219L210.015 70.1094C210.015 62.526 208.067 58.0052 204.17 56.5469C200.29 55.0781 195.329 56.0885 189.285 59.5781C183.223 63.0781 178.279 67.7865 174.454 73.7031C170.647 79.6094 168.744 86.3542 168.744 93.9375L168.744 96.25ZM181.382 90.7031L181.382 84.9219C181.382 80.7135 182.086 77.401 183.493 74.9844C184.9 72.5469 186.831 70.6198 189.285 69.2031C191.775 67.7656 193.75 67.4375 195.212 68.2188C196.673 68.9792 197.404 71.4635 197.404 75.6719L197.404 81.4531C197.404 85.6406 196.673 88.9688 195.212 91.4375C193.75 93.9062 191.775 95.8594 189.285 97.2969C186.831 98.7135 184.9 99.0156 183.493 98.2031C182.086 97.3906 181.382 94.8906 181.382 90.7031ZM216.104 90.5L232.397 81.0938C238.495 77.5729 243.628 72.7656 247.796 66.6719C251.963 60.5781 254.047 54.0208 254.047 47L254.047 44.6562C254.047 37.6354 251.963 33.4948 247.796 32.2344C243.628 30.9531 238.495 32.0729 232.397 35.5938L216.104 45L216.104 90.5ZM228.229 74.1562L228.229 47.4062L232.153 45.1406C234.859 43.5781 237.087 43.2188 238.838 44.0625C240.606 44.875 241.49 47.375 241.49 51.5625L241.49 54.625C241.49 58.8125 240.606 62.3542 238.838 65.25C237.087 68.1146 234.859 70.3281 232.153 71.8906L228.229 74.1562ZM260.109 65.0938L291.638 46.8906L291.638 37.3281L272.207 48.5469L272.207 39.4531L288.742 29.9062L288.742 20.5L272.207 30.0469L272.207 22.2344L291.34 11.1875L291.34 1.5625L260.109 19.5938L260.109 65.0938Z" fill="black"/>
</svg>
